<?xml version="1.0" encoding="utf-8"?>
<!-- Generator: Adobe Illustrator 28.0.0, SVG Export Plug-In . SVG Version: 6.00 Build 0)  -->
<svg version="1.1" id="Слой_1" xmlns="http://www.w3.org/2000/svg" xmlns:xlink="http://www.w3.org/1999/xlink" x="0px" y="0px"
	 viewBox="0 0 1396 1080" style="enable-background:new 0 0 1396 1080;" xml:space="preserve">
<style type="text/css">
	.st0{fill:#333333;}
	.st1{fill:#FFBBA9;}
	.st2{fill:#FF8E77;}
	.st3{fill:#231F20;}
	.st4{fill:#CD9BDD;}
	.st5{clip-path:url(#XMLID_00000086661241872804813740000016043849936605881000_);}
	.st6{fill:none;stroke:#000000;stroke-width:0.377;stroke-linecap:round;stroke-linejoin:round;stroke-miterlimit:10;}
	.st7{clip-path:url(#XMLID_00000131351063334251831700000007845420333608926848_);}
	.st8{fill:#637595;}
	.st9{fill:#4F627D;}
	.st10{fill:#A2A8BD;}
	.st11{fill:#404D68;}
</style>
<polygon class="st0" points="692.87,198.79 415.75,204.7 402.55,451.93 716.58,445.23 "/>
<path class="st1" d="M561.12,521.54L561.12,521.54c-28.78,0.61-52.55-19.64-53.09-45.24l-2.26-106.12l104.21-2.22l2.26,106.12
	C612.78,499.68,589.9,520.93,561.12,521.54z"/>
<polygon class="st2" points="609.97,367.96 505.77,370.18 507.81,466.22 610.51,393.05 "/>
<path class="st1" d="M437.58,248.67c0,0-11.8-35.73-36.98-18.15c-25.18,17.58-5.7,86.78,44.03,76.48l12.71-3.35L437.58,248.67z"/>
<path class="st1" d="M674.2,243.63c0,0,10.26-36.2,36.17-19.71c25.91,16.49,9.39,86.46-40.73,78.29l-12.84-2.81L674.2,243.63z"/>
<path class="st1" d="M682.03,205.19l-0.16,0c0.06-1.83,0.08-3.68,0.04-5.53c-1.34-62.68-59.55-112.28-130.02-110.78
	c-70.47,1.5-126.51,53.54-125.18,116.22c0.04,1.85,0.14,3.7,0.27,5.53l-0.16,0l0.38,2.22c0.48,4.97,1.3,9.84,2.48,14.6l11.79,69.37
	c4.33,25.47,8.06,49.12,28.99,66.85l48.85,37.09c10.62,9,24.73,9.44,39.42,9.12c14.69-0.31,28.78-1.36,39-10.8l47.22-39.14
	c20.15-18.61,22.87-42.4,26.11-68.03l8.82-69.81c0.97-4.8,1.58-9.71,1.86-14.69L682.03,205.19z"/>
<g>
	<path class="st2" d="M407.37,240.86c-0.01,0-0.01,0-0.01,0c-4.76,0.11-7.52,3.74-8.4,5.87c-0.48,1.17,0.28,2.42,1.71,2.81
		c1.42,0.4,2.98-0.24,3.48-1.4c0.01-0.03,1.28-2.77,3.32-2.81c0,0,0.01,0,0.01,0c1.21-0.02,4.38,0.78,9.67,7.47
		c-1.73,3.38-7.43,16.83,3.55,29.39c0.54,0.62,1.41,0.95,2.29,0.93c0.53-0.01,1.07-0.15,1.53-0.42c1.23-0.72,1.53-2.12,0.65-3.12
		c-7.11-8.13-5.95-16.76-4.37-21.66c3.21,4.89,6.98,11.62,11.37,20.99c0.42,0.9,1.49,1.45,2.61,1.42c0.31-0.01,0.62-0.05,0.93-0.15
		c1.41-0.45,2.13-1.74,1.59-2.89C421.9,244.4,412.84,240.74,407.37,240.86z"/>
	<path class="st2" d="M712.71,240.04c-0.97-2.09-3.89-5.61-8.65-5.51c-0.01,0-0.01,0-0.01,0c-5.47,0.12-14.36,4.16-28.34,37.66
		c-0.49,1.17,0.28,2.43,1.71,2.82c0.31,0.09,0.62,0.12,0.93,0.11c1.12-0.02,2.16-0.61,2.55-1.53c3.98-9.55,7.46-16.43,10.46-21.45
		c1.79,4.82,3.31,13.39-3.44,21.82c-0.83,1.04-0.48,2.42,0.79,3.09c0.48,0.25,1.02,0.37,1.55,0.36c0.87-0.02,1.73-0.38,2.25-1.02
		c10.43-13.01,4.17-26.2,2.29-29.51c5-6.91,8.14-7.85,9.35-7.88c0,0,0.01,0,0.01,0c2.03-0.04,3.4,2.6,3.44,2.67
		c0.54,1.14,2.11,1.72,3.53,1.26C712.53,242.49,713.25,241.19,712.71,240.04z"/>
	<path class="st2" d="M565.91,283.57L565.91,283.57c-2.64-2.76-4.24-6.22-4.59-9.88l-2.73-29.12c-0.11-1.23-1.42-2.13-2.94-2.04
		c-1.51,0.1-2.64,1.19-2.52,2.42l3.45,36.85c0.18,0.43,0.45,0.95,0.89,1.48c1,1.22,2.27,1.78,2.94,2.02
		c0.79,0.7,1.59,1.39,2.38,2.09c2.36,1.49,3.87,3.09,4.77,4.18c1.06,1.3,2.01,2.47,2.43,4.23c0.28,1.18,0.12,1.79,0.09,4.28
		c-0.01,0.78-0.01,1.51,0.01,2.15c0.03,1.48-0.13,2.96-0.5,4.4c-0.43,1.66-0.86,3.32-1.29,4.98c-1.01,0.93-0.91,2.34,0.22,3.16
		c0.54,0.39,1.21,0.57,1.87,0.55c0.74-0.02,1.47-0.27,2-0.76l2.11-8.82c0.26-1.1,0.42-2.2,0.44-3.32c0.03-1.37-0.03-2.91-0.22-4.58
		c-0.39-3.33-0.69-5.91-2.52-8.52c-1.05-1.5-2.35-2.65-3.65-3.51C567.56,285.18,566.7,284.4,565.91,283.57z"/>
</g>
<path class="st0" d="M696.87,205.32c-1.61-75.29-66.67-134.96-145.33-133.28c-78.66,1.68-141.13,64.07-139.52,139.36
	c0.05,2.23,0.16,4.44,0.32,6.64l-0.18,0l0.43,2.67c0.55,5.97,1.47,11.82,2.79,17.54l26.72,63.62l-7.34-62.56
	c0,0,81.79-32.99,81.77-145.95c0,0,12.48,124.09,159.06,160.83l-6.05,51.28l25.11-73.18c1.08-5.76,1.75-11.66,2.04-17.64l0.31-2.69
	l-0.18,0C696.9,209.76,696.92,207.54,696.87,205.32z"/>
<path class="st3" d="M474.23,232.63c6.28-3.22,22.87-9.75,44.05-2.67c1.8,0.6,3.96-0.09,4.59-1.43l0.02-0.04
	c0.53-1.11-0.16-2.32-1.65-2.84c-8.06-2.81-33.61-10.04-51.7,3.49c-1.1,0.82-1.14,2.09-0.19,2.99l0,0
	C470.48,233.22,472.67,233.43,474.23,232.63z"/>
<path class="st3" d="M588.85,226.96c6.45-2.86,23.38-8.43,44.13-0.16c1.76,0.7,3.96,0.14,4.67-1.16l0.02-0.04
	c0.59-1.08-0.03-2.32-1.49-2.93c-7.89-3.26-32.98-11.94-51.82,0.55c-1.14,0.76-1.26,2.03-0.36,2.97l0,0
	C585.08,227.33,587.25,227.67,588.85,226.96z"/>
<path class="st4" d="M765.28,498.35c-21.95-14.91-44.99-20.6-75.62-24.04c-0.1,0.02-0.16-0.03-0.27-0.01l-1.4-0.14l-25.19-2.34
	c-68.42-6.34-137.82,3.82-201.55,29.51l-23.47,9.46l-1.56,0.62c-28.36,12.08-48.8,24.14-65.55,44.71l-1.44,1.79l77.42,563.9
	c1.43,10.45,11.79,17.63,23.05,15.98l183.72-26.9l183.72-26.9c11.26-1.65,19.12-11.49,17.5-21.92l-87.49-562.43L765.28,498.35z"/>
<path class="st1" d="M919.87,778.58l-73.93-213.56l-81.39,37.81l84.83,202.67c7.99,19.1,29.87,28.19,49.05,20.39l0,0
	C917.01,818.33,926.44,797.54,919.87,778.58z"/>
<path class="st4" d="M769.68,723.72l129.19-46.86l-52.33-144.28c-12.94-35.68-52.35-54.11-88.03-41.17l0,0
	c-35.68,12.94-54.11,52.35-41.17,88.03L769.68,723.72z"/>
<path class="st2" d="M557.3,353.97c-18.28,0.39-30.19-7.07-30.36-7.18c-0.99-0.64-0.88-1.63,0.24-2.22
	c1.12-0.59,2.83-0.55,3.83,0.08c0.94,0.6,23.41,14.52,54.19-1.33c1.13-0.58,2.84-0.54,3.83,0.11c0.98,0.64,0.85,1.64-0.28,2.22
	C577.11,351.63,566.41,353.78,557.3,353.97z"/>
<path class="st1" d="M656.49,803.38c0,0,37.67-0.79,64.33-33.68l38-14.27c5.9-2.22,9.58-8.27,8.62-14.19l0,0
	c-1.03-6.41-7.11-10.45-13.74-9.12l-23.69,4.74l6.56-5.56c10.42-8.83,23.28-14.15,36.51-15.1l37.65-2.72
	c4.28-0.31,8.24-2.89,10.32-6.74l0,0c4.03-7.43-0.51-15.96-8.72-16.4l-49.3-2.62c-19.11-1.02-38.38,6.21-52.87,19.83l-77.91,73.19
	L656.49,803.38z"/>
<g>
	<path class="st1" d="M342.95,826.58l306.83-60.31l12.33,32.24c0,0-183.18,65.64-298.69,101.16c-18.32,5.64-42.57-10.29-46.71-29.01
		l0,0C312.84,853.12,325.42,830.48,342.95,826.58z"/>
</g>
<path class="st1" d="M312.4,861.41l9.61-225.79l88.82,12.89L387.66,867c-2.18,20.58-20.54,35.57-41.14,33.6l0,0
	C326.54,898.68,311.55,881.47,312.4,861.41z"/>
<path class="st4" d="M431.2,773.48L294,765.63l8.77-153.22c2.17-37.89,34.64-66.84,72.53-64.67l0,0
	c37.89,2.17,66.84,34.64,64.67,72.53L431.2,773.48z"/>
<g>
	<g>
		<defs>
			<path id="XMLID_34_" d="M518.73,267.49c0,0-6.37-15.21-21.15-15.6c-14.78-0.39-23.35,11.51-23.35,11.51s4.02,12.95,21.94,13.43
				S518.73,267.49,518.73,267.49z"/>
		</defs>
		<use xlink:href="#XMLID_34_"  style="overflow:visible;fill:#FFFFFF;"/>
		<clipPath id="XMLID_00000013186421869030800930000004556630388976920736_">
			<use xlink:href="#XMLID_34_"  style="overflow:visible;"/>
		</clipPath>
		<path style="clip-path:url(#XMLID_00000013186421869030800930000004556630388976920736_);" d="M481.65,264.12
			c-0.22,8.13,6.2,14.9,14.33,15.12c8.13,0.22,14.9-6.2,15.12-14.33c0.22-8.13-6.2-14.9-14.33-15.12
			C488.64,249.57,481.87,255.98,481.65,264.12z"/>
	</g>
	<path class="st6" d="M518.73,267.49c0,0-5.88-15.77-21.15-15.6c-15.26,0.17-23.35,11.51-23.35,11.51"/>
</g>
<g>
	<g>
		<defs>
			<path id="XMLID_32_" d="M584.64,266.09c0,0,5.72-15.47,20.46-16.49s23.82,10.51,23.82,10.51s-3.46,13.11-21.35,14.35
				C589.68,275.7,584.64,266.09,584.64,266.09z"/>
		</defs>
		<use xlink:href="#XMLID_32_"  style="overflow:visible;fill:#FFFFFF;"/>
		<clipPath id="XMLID_00000131351802730110357800000012976829957150799285_">
			<use xlink:href="#XMLID_32_"  style="overflow:visible;"/>
		</clipPath>
		<path style="clip-path:url(#XMLID_00000131351802730110357800000012976829957150799285_);" d="M621.55,261.13
			c0.56,8.12-5.56,15.15-13.68,15.71c-8.12,0.56-15.15-5.56-15.71-13.68c-0.56-8.12,5.56-15.15,13.68-15.71
			C613.95,246.89,620.98,253.02,621.55,261.13z"/>
	</g>
	<path class="st6" d="M584.64,266.09c0,0,5.21-16.01,20.46-16.49c15.25-0.48,23.82,10.51,23.82,10.51"/>
</g>
<g>
	<polygon class="st8" points="834.82,548.41 711.77,822.33 711.77,816.97 690.99,816.97 690.99,822.33 682.44,822.33 682.44,816.97 
		661.66,816.97 661.66,822.33 653.11,822.33 653.11,816.97 632.32,816.97 632.32,822.33 623.78,822.33 623.78,816.97 602.99,816.97 
		602.99,822.33 594.45,822.33 594.45,816.97 573.66,816.97 573.66,822.33 565.12,822.33 565.12,816.97 544.33,816.97 544.33,822.33 
		535.79,822.33 535.79,816.97 515,816.97 515,822.33 506.46,822.33 506.46,816.97 485.67,816.97 485.67,822.33 478.66,822.33 
		478.66,845.47 730.54,845.47 1168.65,845.47 1168.65,822.33 1168.65,822.33 1287.68,557.33 1287.68,548.41 834.82,548.41 	"/>
	<polygon class="st9" points="730.54,845.47 1168.65,845.47 1168.65,822.33 730.54,822.33 730.54,845.47 	"/>
	<polygon class="st10" points="1287.68,557.33 1287.68,548.41 834.82,548.41 849.58,557.33 1287.68,557.33 	"/>
	<polygon class="st11" points="834.82,548.41 711.77,822.33 711.77,816.97 690.99,816.97 690.99,822.33 682.44,822.33 
		682.44,816.97 661.66,816.97 661.66,822.33 653.11,822.33 653.11,816.97 632.32,816.97 632.32,822.33 623.78,822.33 623.78,816.97 
		602.99,816.97 602.99,822.33 594.45,822.33 594.45,816.97 573.66,816.97 573.66,822.33 565.12,822.33 565.12,816.97 544.33,816.97 
		544.33,822.33 535.79,822.33 535.79,816.97 515,816.97 515,822.33 506.46,822.33 506.46,816.97 485.67,816.97 485.67,822.33 
		478.66,822.33 478.66,845.47 730.54,845.47 730.54,822.33 849.58,557.33 834.82,548.41 	"/>
	<path class="st11" d="M900.53,803.61c-0.31,0-0.62-0.15-0.82-0.42c-0.32-0.45-0.22-1.08,0.23-1.4l288-204.98
		c0.45-0.32,1.08-0.22,1.4,0.23c0.32,0.45,0.22,1.08-0.23,1.4l-288,204.98C900.93,803.55,900.73,803.61,900.53,803.61L900.53,803.61
		z"/>
	<path class="st11" d="M861.54,761.78c-0.32,0-0.63-0.15-0.82-0.42c-0.32-0.45-0.22-1.07,0.24-1.39l200.35-142.6
		c0.45-0.32,1.08-0.21,1.4,0.23c0.32,0.45,0.22,1.08-0.23,1.4L862.12,761.59C861.94,761.71,861.74,761.78,861.54,761.78
		L861.54,761.78z"/>
	<path class="st11" d="M1002.56,794.63c-0.32,0-0.63-0.15-0.82-0.42c-0.32-0.45-0.22-1.07,0.23-1.4l200.35-142.59
		c0.45-0.32,1.08-0.21,1.4,0.23c0.32,0.45,0.22,1.08-0.23,1.4l-200.35,142.59C1002.96,794.57,1002.75,794.63,1002.56,794.63
		L1002.56,794.63z"/>
	<path class="st11" d="M762.81,817.37l-0.4-0.09c-0.51-0.22-0.74-0.81-0.52-1.32l104.4-238.87c0.22-0.51,0.81-0.74,1.32-0.52
		c0.51,0.22,0.74,0.81,0.52,1.32l-104.4,238.87C763.56,817.15,763.19,817.37,762.81,817.37L762.81,817.37z"/>
</g>
</svg>
