<?xml version="1.0" encoding="utf-8"?>
<!-- Generator: Adobe Illustrator 28.0.0, SVG Export Plug-In . SVG Version: 6.00 Build 0)  -->
<svg version="1.1" id="Слой_1" xmlns="http://www.w3.org/2000/svg" xmlns:xlink="http://www.w3.org/1999/xlink" x="0px" y="0px"
	 viewBox="0 0 915 1080" style="enable-background:new 0 0 915 1080;" xml:space="preserve">
<style type="text/css">
	.st0{fill:#5179A5;}
	.st1{fill:#333333;}
	.st2{fill:#FFBBA9;}
	.st3{fill:#FF8E77;}
	.st4{fill:#231F20;}
	.st5{fill:#CD9BDD;}
	.st6{clip-path:url(#XMLID_00000150809400567662669760000013510061820129011334_);}
	.st7{fill:none;stroke:#000000;stroke-width:0.377;stroke-linecap:round;stroke-linejoin:round;stroke-miterlimit:10;}
	.st8{clip-path:url(#XMLID_00000019678408225471487130000003804374872847515550_);}
</style>
<path class="st0" d="M398.05,928.8l-206.44,833.06l210.5,33.02l130.45-670.44c0.41-2.12,3.97-1.56,3.71,0.58l-81.11,678.18
	l210.5,33.02l58.56-856.26L398.05,928.8z"/>
<polygon class="st1" points="518.23,130.79 781.39,136.47 793.93,373.94 495.72,367.51 "/>
<path class="st2" d="M643.35,440.81L643.35,440.81c27.33,0.59,49.9-18.86,50.42-43.45l2.15-101.94l-98.96-2.13l-2.15,101.94
	C594.29,419.82,616.02,440.23,643.35,440.81z"/>
<polygon class="st3" points="596.95,293.29 695.91,295.42 693.97,387.68 596.45,317.39 "/>
<path class="st2" d="M760.66,178.71c0,0,11.2-34.32,35.11-17.44c23.91,16.89,5.41,83.36-41.81,73.47l-12.07-3.22L760.66,178.71z"/>
<path class="st2" d="M535.96,173.86c0,0-9.75-34.78-34.35-18.93c-24.6,15.84-8.92,83.05,38.68,75.2l12.19-2.7L535.96,173.86z"/>
<path class="st2" d="M528.53,136.94l0.15,0c-0.06-1.76-0.07-3.53-0.04-5.32c1.27-60.21,56.55-107.85,123.47-106.41
	c66.92,1.44,120.14,51.42,118.87,111.64c-0.04,1.78-0.13,3.55-0.26,5.31l0.15,0l-0.36,2.14c-0.46,4.77-1.24,9.45-2.35,14.02
	l-11.19,66.64c-4.11,24.47-7.65,47.18-27.53,64.22l-46.39,35.63c-10.08,8.64-23.48,9.06-37.44,8.76
	c-13.95-0.3-27.33-1.3-37.03-10.37l-44.84-37.59c-19.14-17.88-21.72-40.72-24.8-65.34l-8.37-67.06c-0.93-4.61-1.5-9.32-1.76-14.11
	L528.53,136.94z"/>
<g>
	<path class="st3" d="M789.35,171.2c0.01,0,0.01,0,0.01,0c4.52,0.1,7.15,3.59,7.98,5.64c0.46,1.12-0.27,2.33-1.62,2.7
		c-1.35,0.38-2.83-0.23-3.3-1.35c-0.01-0.03-1.22-2.66-3.16-2.7c0,0-0.01,0-0.01,0c-1.15-0.02-4.16,0.75-9.18,7.18
		c1.64,3.25,7.05,16.17-3.37,28.23c-0.52,0.6-1.34,0.91-2.17,0.89c-0.51-0.01-1.01-0.14-1.46-0.4c-1.17-0.69-1.45-2.04-0.62-3
		c6.75-7.81,5.65-16.1,4.15-20.8c-3.05,4.7-6.63,11.16-10.79,20.16c-0.4,0.87-1.41,1.39-2.48,1.37c-0.29-0.01-0.59-0.05-0.88-0.15
		c-1.34-0.43-2.02-1.67-1.51-2.78C775.56,174.6,784.15,171.09,789.35,171.2z"/>
	<path class="st3" d="M499.39,170.41c0.92-2.01,3.69-5.39,8.21-5.29c0.01,0,0.01,0,0.01,0c5.2,0.11,13.64,4,26.91,36.18
		c0.46,1.13-0.26,2.34-1.62,2.71c-0.29,0.08-0.59,0.12-0.88,0.11c-1.06-0.02-2.05-0.59-2.42-1.47c-3.78-9.17-7.09-15.78-9.93-20.6
		c-1.7,4.63-3.15,12.86,3.27,20.96c0.79,1,0.45,2.32-0.75,2.97c-0.45,0.24-0.97,0.35-1.47,0.34c-0.83-0.02-1.64-0.36-2.13-0.98
		c-9.9-12.5-3.96-25.16-2.18-28.35c-4.75-6.64-7.73-7.54-8.87-7.57c0,0-0.01,0-0.01,0c-1.93-0.04-3.23,2.5-3.27,2.56
		c-0.51,1.1-2.01,1.65-3.35,1.22C499.56,172.76,498.88,171.52,499.39,170.41z"/>
	<path class="st3" d="M638.8,212.22L638.8,212.22c2.5-2.65,4.03-5.97,4.36-9.49l2.59-27.97c0.11-1.18,1.35-2.05,2.79-1.96
		c1.43,0.1,2.51,1.14,2.4,2.32l-3.28,35.4c-0.17,0.41-0.43,0.91-0.84,1.42c-0.95,1.17-2.15,1.71-2.79,1.94
		c-0.75,0.67-1.51,1.34-2.26,2.01c-2.24,1.43-3.68,2.97-4.53,4.02c-1.01,1.25-1.91,2.37-2.31,4.07c-0.27,1.14-0.12,1.72-0.09,4.12
		c0.01,0.75,0,1.45-0.01,2.06c-0.03,1.42,0.12,2.84,0.48,4.23c0.41,1.59,0.82,3.19,1.22,4.78c0.96,0.89,0.87,2.25-0.21,3.03
		c-0.51,0.37-1.15,0.55-1.78,0.53c-0.7-0.02-1.39-0.26-1.9-0.73l-2-8.48c-0.25-1.05-0.39-2.11-0.42-3.19
		c-0.02-1.31,0.03-2.79,0.21-4.4c0.37-3.2,0.66-5.68,2.39-8.18c1-1.45,2.24-2.54,3.47-3.37
		C637.24,213.77,638.05,213.02,638.8,212.22z"/>
</g>
<path class="st1" d="M514.43,137.06C515.96,64.74,577.75,7.42,652.45,9.03c74.7,1.61,134.02,61.54,132.49,133.86
	c-0.05,2.14-0.15,4.26-0.3,6.38l0.17,0l-0.4,2.57c-0.52,5.73-1.4,11.36-2.65,16.84l-25.38,61.11l6.97-60.09
	c0,0-77.67-31.69-77.65-140.2c0,0-11.85,119.2-151.05,154.49l5.74,49.26l-23.84-70.29c-1.02-5.54-1.66-11.2-1.94-16.94l-0.3-2.58
	l0.17,0C514.41,141.32,514.39,139.2,514.43,137.06z"/>
<path class="st4" d="M725.87,163.3c-5.96-3.09-21.71-9.36-41.83-2.56c-1.71,0.58-3.76-0.09-4.36-1.37l-0.02-0.03
	c-0.5-1.07,0.15-2.23,1.57-2.72c7.66-2.7,31.92-9.64,49.1,3.36c1.04,0.79,1.08,2.01,0.18,2.87l0,0
	C729.42,163.86,727.34,164.06,725.87,163.3z"/>
<path class="st4" d="M617.02,157.85c-6.13-2.74-22.21-8.1-41.9-0.15c-1.67,0.68-3.76,0.13-4.43-1.12l-0.02-0.03
	c-0.56-1.04,0.03-2.23,1.41-2.81c7.49-3.13,31.32-11.47,49.21,0.53c1.08,0.73,1.19,1.95,0.34,2.85l0,0
	C620.6,158.21,618.54,158.53,617.02,157.85z"/>
<path class="st5" d="M449.47,418.54c20.84-14.32,42.72-19.78,71.81-23.09c0.1,0.01,0.15-0.02,0.25-0.01l1.33-0.13l23.92-2.24
	c64.97-6.09,130.88,3.67,191.39,28.35l22.28,9.09l1.48,0.6c26.93,11.6,46.34,23.18,62.25,42.95l1.37,1.72l-73.52,541.67
	c-1.36,10.04-11.19,16.94-21.89,15.35l-174.47-25.84L381.22,981.1c-10.7-1.58-18.16-11.04-16.62-21.05l83.08-540.25L449.47,418.54z"
	/>
<path class="st3" d="M646.98,279.85c17.36,0.37,28.67-6.79,28.84-6.9c0.94-0.61,0.84-1.57-0.23-2.13c-1.06-0.57-2.69-0.53-3.63,0.08
	c-0.89,0.58-22.23,13.95-51.46-1.28c-1.08-0.56-2.7-0.51-3.63,0.1c-0.93,0.62-0.81,1.57,0.26,2.13
	C628.16,277.6,638.32,279.66,646.98,279.85z"/>
<g>
	<path class="st2" d="M294.69,716.94l-79.47-289.42l29.62-14.19c0,0,75.51,170.6,117.56,278.6c6.67,17.13-6.64,41.53-24.06,46.88
		l0,0C322.02,743.83,299.67,733.44,294.69,716.94z"/>
</g>
<path class="st2" d="M222.32,444.48c0,0-31.4-17.37-39.45-57.21l-25.76-29c-4-4.5-4.45-11.29-1.05-15.91l0,0
	c3.68-5,10.57-5.75,15.57-1.69l17.89,14.53l-3.09-7.65c-4.91-12.14-13.42-22.37-24.15-29.05l-30.53-18.99
	c-3.47-2.16-5.68-6.11-5.75-10.31l0,0c-0.14-8.12,7.42-13.38,14.53-10.11l42.69,19.61c16.54,7.6,29.61,22.3,35.86,40.33l33.59,96.89
	L222.32,444.48z"/>
<path class="st2" d="M302.67,687.72l70.21-205.14l77.29,36.32l-80.56,194.68c-7.59,18.34-28.37,27.08-46.58,19.59l0,0
	C305.38,725.9,296.43,705.93,302.67,687.72z"/>
<path class="st5" d="M445.29,635.02l-122.69-45.01l49.69-138.59c12.29-34.27,49.71-51.97,83.59-39.54l0,0
	c33.88,12.43,51.38,50.29,39.09,84.56L445.29,635.02z"/>
<g>
	<g>
		<path class="st2" d="M819.08,742.9L593.94,938.77l16.82,28.45c0,0,156.53-99.33,250.85-165.45c14.96-10.49,17.31-38.26,5.77-52.5
			l0,0C856.57,735.92,832.29,731.98,819.08,742.9z"/>
	</g>
	<path class="st2" d="M609.16,928.66c0,0-35.64-3.22-64.23,25.36l-37.35,9.62c-5.8,1.49-9.9,6.88-9.62,12.64l0,0
		c0.31,6.23,5.62,10.73,12.01,10.16l22.86-2.02l-6.77,4.62c-10.75,7.33-23.45,11.05-36.04,10.56l-35.82-1.38
		c-4.08-0.16-8.08,1.89-10.45,5.34l0,0c-4.58,6.67-1.19,15.29,6.52,16.58l46.26,7.71c17.93,2.99,36.87-1.88,51.98-13.35l81.18-61.65
		L609.16,928.66z"/>
</g>
<path class="st2" d="M879.54,767.29l-9.12-216.89l-84.34,12.39l22,209.87c2.07,19.77,19.5,34.17,39.07,32.27l0,0
	C866.11,803.08,880.35,786.55,879.54,767.29z"/>
<path class="st5" d="M766.72,682.82l130.29-7.55l-8.33-147.18c-2.06-36.39-32.9-64.21-68.88-62.12l0,0
	c-35.98,2.08-63.48,33.28-61.42,69.67L766.72,682.82z"/>
<g>
	<g>
		<defs>
			<path id="XMLID_34_" d="M683.6,196.78c0,0,6.05-14.61,20.08-14.99c14.03-0.38,22.17,11.06,22.17,11.06s-3.82,12.44-20.84,12.9
				S683.6,196.78,683.6,196.78z"/>
		</defs>
		<use xlink:href="#XMLID_34_"  style="overflow:visible;fill:#FFFFFF;"/>
		<clipPath id="XMLID_00000013193842790919035290000014967045547831787449_">
			<use xlink:href="#XMLID_34_"  style="overflow:visible;"/>
		</clipPath>
		<path style="clip-path:url(#XMLID_00000013193842790919035290000014967045547831787449_);" d="M718.81,193.54
			c0.21,7.81-5.89,14.31-13.61,14.52c-7.72,0.21-14.15-5.96-14.35-13.77c-0.21-7.81,5.89-14.31,13.61-14.52
			C712.18,179.56,718.61,185.73,718.81,193.54z"/>
	</g>
	<path class="st7" d="M683.6,196.78c0,0,5.59-15.15,20.08-14.99c14.49,0.16,22.17,11.06,22.17,11.06"/>
</g>
<g>
	<g>
		<defs>
			<path id="XMLID_32_" d="M621.01,195.43c0,0-5.43-14.86-19.43-15.84c-14-0.98-22.62,10.09-22.62,10.09s3.29,12.6,20.27,13.79
				C616.22,204.66,621.01,195.43,621.01,195.43z"/>
		</defs>
		<use xlink:href="#XMLID_32_"  style="overflow:visible;fill:#FFFFFF;"/>
		<clipPath id="XMLID_00000129889423483763195690000001844062219151691154_">
			<use xlink:href="#XMLID_32_"  style="overflow:visible;"/>
		</clipPath>
		<path style="clip-path:url(#XMLID_00000129889423483763195690000001844062219151691154_);" d="M585.96,190.67
			c-0.53,7.8,5.28,14.55,12.99,15.09c7.71,0.54,14.39-5.34,14.92-13.14c0.53-7.8-5.28-14.55-12.99-15.09
			C593.18,177,586.5,182.88,585.96,190.67z"/>
	</g>
	<path class="st7" d="M621.01,195.43c0,0-4.94-15.38-19.43-15.84c-14.49-0.46-22.62,10.09-22.62,10.09"/>
</g>
</svg>
